<?xml version="1.0" encoding="utf-8"?>
<!-- Generator: Adobe Illustrator 16.0.0, SVG Export Plug-In . SVG Version: 6.00 Build 0)  -->
<!DOCTYPE svg PUBLIC "-//W3C//DTD SVG 1.1//EN" "http://www.w3.org/Graphics/SVG/1.1/DTD/svg11.dtd">
<svg version="1.1" xmlns="http://www.w3.org/2000/svg" xmlns:xlink="http://www.w3.org/1999/xlink" x="0px" y="0px"
	 width="450.698px" height="389.123px" viewBox="0 0 450.698 389.123" enable-background="new 0 0 450.698 389.123"
	 xml:space="preserve">
<g id="LAYOUT">
</g>
<g id="Sign_Up">
	<g id="LAYOUT_1_">
	</g>
</g>
<g id="Sign_In">
</g>
<g id="Two_Password">
</g>
<g id="Forgot_Password">
</g>
<g id="Confirmation">
	<g>
		<path fill="#CCCCCC" d="M210.348,134c0.002,0,0.011-0.02,0.011-0.179c0-16.688-13.577-30.12-30.266-30.12
			s-30.267,13.357-30.267,30.046c0,0.159,0.01,0.252,0.012,0.252h-15.165v14h18.452c5.012,10,15.214,16.552,26.968,16.552
			c11.753,0,21.957-6.552,26.968-16.552h108.612v-14H210.348z M180.093,151.141c-3.767,0-7.25-1.232-10.072-3.311
			c-4.094-3.015-6.792-7.814-6.94-13.242c-0.005-0.158-0.012-0.314-0.012-0.473c0-9.387,7.637-17.024,17.024-17.024
			s17.024,7.637,17.024,17.024c0,0.159-0.007,0.315-0.012,0.473c-0.149,5.427-2.847,10.227-6.941,13.242
			C187.342,149.909,183.859,151.141,180.093,151.141z"/>
		<path fill="#CCCCCC" d="M210.358,255.354c0-16.688-13.577-30.352-30.266-30.352s-30.267,13.707-30.267,30.396
			c0,0.159,0.01,0.603,0.012,0.603h-15.165v13h18.452c5.012,10,15.214,16.552,26.968,16.552c11.753,0,21.957-6.552,26.968-16.552
			h108.612v-13H210.348C210.35,256,210.358,255.513,210.358,255.354z M190.164,268.895c-2.822,2.079-6.305,3.311-10.071,3.311
			s-7.25-1.232-10.072-3.311c-4.094-3.015-6.792-7.814-6.94-13.241c-0.005-0.158-0.012-0.314-0.012-0.473
			c0-9.388,7.637-17.024,17.024-17.024s17.024,7.637,17.024,17.024c0,0.159-0.007,0.315-0.012,0.473
			C196.956,261.081,194.259,265.88,190.164,268.895z"/>
		<path fill="#CCCCCC" d="M301.157,194.588c0-16.689-13.576-30.236-30.266-30.236c-16.688,0-30.267,13.532-30.267,30.221
			c0,0.159,0.01,0.428,0.012,0.428H134.673v14h109.252c5.011,9,15.214,16.552,26.967,16.552c11.754,0,21.956-7.552,26.968-16.552
			h17.813v-14h-14.526C301.149,195,301.157,194.746,301.157,194.588z M280.964,208.363c-2.823,2.078-6.306,3.31-10.072,3.31
			s-7.25-1.232-10.072-3.31c-4.093-3.015-6.791-7.815-6.94-13.242c-0.004-0.158-0.012-0.314-0.012-0.473
			c0-9.388,7.637-17.025,17.024-17.025s17.024,7.638,17.024,17.025c0,0.158-0.007,0.315-0.012,0.473
			C287.755,200.548,285.059,205.348,280.964,208.363z"/>
	</g>
</g>
<g id="Grid" display="none">
</g>
</svg>
