<?xml version="1.0" encoding="UTF-8" standalone="no"?>
<svg
   xmlns:dc="http://purl.org/dc/elements/1.1/"
   xmlns:cc="http://creativecommons.org/ns#"
   xmlns:rdf="http://www.w3.org/1999/02/22-rdf-syntax-ns#"
   xmlns:svg="http://www.w3.org/2000/svg"
   xmlns="http://www.w3.org/2000/svg"
   xmlns:sodipodi="http://sodipodi.sourceforge.net/DTD/sodipodi-0.dtd"
   xmlns:inkscape="http://www.inkscape.org/namespaces/inkscape"
   width="35"
   height="35"
   viewBox="0 0 35 35.000001"
   version="1.1"
   id="svg1007"
   sodipodi:docname="icon-avatar.svg"
   inkscape:version="0.92.3 (2405546, 2018-03-11)">
  <metadata
     id="metadata1011">
    <rdf:RDF>
      <cc:Work
         rdf:about="">
        <dc:format>image/svg+xml</dc:format>
        <dc:type
           rdf:resource="http://purl.org/dc/dcmitype/StillImage" />
        <dc:title>Shape</dc:title>
      </cc:Work>
    </rdf:RDF>
  </metadata>
  <sodipodi:namedview
     pagecolor="#ffffff"
     bordercolor="#666666"
     borderopacity="1"
     objecttolerance="10"
     gridtolerance="10"
     guidetolerance="10"
     inkscape:pageopacity="0"
     inkscape:pageshadow="2"
     inkscape:window-width="1920"
     inkscape:window-height="1052"
     id="namedview1009"
     showgrid="false"
     inkscape:zoom="22.47619"
     inkscape:cx="20.441337"
     inkscape:cy="20.915782"
     inkscape:window-x="0"
     inkscape:window-y="0"
     inkscape:window-maximized="1"
     inkscape:current-layer="svg1007" />
  <!-- Generator: Sketch 49.3 (51167) - http://www.bohemiancoding.com/sketch -->
  <title
     id="title994">Shape</title>
  <desc
     id="desc996">Created with Sketch.</desc>
  <defs
     id="defs998" />
  <g
     id="Page-1"
     style="fill:none;fill-opacity:0.6;fill-rule:evenodd;stroke:none;stroke-width:1"
     transform="translate(9.765485,8.1055394)">
    <g
       id="Epic-edit-and-view"
       transform="translate(-287,-581)"
       style="fill:#4762f2;fill-rule:nonzero">
      <g
         id="Group-18"
         transform="translate(277,486)">
        <g
           id="Group-19-Copy-13"
           transform="translate(0,88)">
          <g
             id="502734204">
            <g
               id="profile-user"
               transform="translate(10,7)">
              <path
                 d="m 7.6596,0.4848 c 2.496,0 4.5186,2.0232 4.5186,4.518 0,2.4954 -2.0226,4.518 -4.5186,4.518 -2.4948,0 -4.5174,-2.0226 -4.5174,-4.518 0,-2.4948 2.0226,-4.518 4.5174,-4.518 z m -0.003,19.6626 c -2.4894,0 -4.7694,-0.9066 -6.528,-2.4072 C 0.7002,17.3748 0.453,16.839 0.453,16.2768 c 0,-2.5302 2.0478,-4.5552 4.5786,-4.5552 h 5.2572 c 2.5314,0 4.5714,2.025 4.5714,4.5552 0,0.5628 -0.246,1.0974 -0.675,1.4628 -1.758,1.5012 -4.0386,2.4078 -6.5286,2.4078 z"
                 id="Shape"
                 inkscape:connector-curvature="0" />
            </g>
          </g>
        </g>
      </g>
    </g>
  </g>
</svg>
