<?xml version="1.0" encoding="UTF-8"?>
<svg width="21px" height="23px" viewBox="0 0 21 23" version="1.1" xmlns="http://www.w3.org/2000/svg" xmlns:xlink="http://www.w3.org/1999/xlink">
    <!-- Generator: Sketch 49.3 (51167) - http://www.bohemiancoding.com/sketch -->
    <title>user</title>
    <desc>Created with Sketch.</desc>
    <defs></defs>
    <g id="Page-1" stroke="none" stroke-width="1" fill="none" fill-rule="evenodd">
        <g id="Epic-edit-and-view" transform="translate(-284.000000, -585.000000)" fill="#536CF2" fill-rule="nonzero" stroke="#4F69FB" stroke-width="0.5">
            <g id="Group-18" transform="translate(277.000000, 486.000000)">
                <g id="Group-19-Copy-13" transform="translate(0.000000, 88.000000)">
                    <g id="502734204">
                        <g id="user" transform="translate(7.000000, 12.000000)">
                            <path d="M14.843434,14.7298755 L14.7792453,14.7008717 C14.6259849,14.6311358 14.4716151,14.5653623 14.314234,14.5037887 C14.1425887,14.4350038 13.9684075,14.3713698 13.7916906,14.3117774 C13.6521396,14.2659736 13.5115585,14.2231811 13.3694717,14.1814189 C13.1530528,14.1188151 12.9344943,14.062234 12.7094377,14.0123094 C12.6330453,13.9965396 12.5551472,13.9812453 12.4777245,13.9674566 L12.4247887,13.957234 C12.2918943,13.9312415 12.1584453,13.9083396 12.0234906,13.8884491 L11.9848189,13.8823472 C11.9833132,13.8823472 11.982283,13.881317 11.9807774,13.881317 L11.9421057,13.8762453 C11.8300528,13.8594453 11.7185547,13.8436755 11.6023811,13.8304415 L11.2071849,13.7978717 C10.7213321,13.7657774 10.2206604,13.7668075 9.74043396,13.8019132 L9.60040755,13.8136415 L9.53518868,13.8187132 L9.37170566,13.8334528 C9.2214566,13.8492226 9.07223774,13.8701434 8.92301887,13.8940755 L8.87919623,13.9001774 C8.77736604,13.9169774 8.6754566,13.9358377 8.57513208,13.9546981 C8.46363396,13.9745887 8.35356226,13.9964604 8.24356981,14.0203925 C8.03071698,14.0682566 7.81929057,14.1227774 7.6146,14.1823698 C7.45159245,14.2292038 7.29072453,14.280634 7.13944528,14.3326189 L7.03452453,14.3703396 C6.71366038,14.4838981 6.3948566,14.6142566 6.08619623,14.7573736 L6.00370189,14.7966 L6.00219623,14.7986604 C2.39281132,16.5262075 0.0652981132,20.2069132 0.0652981132,24.2007962 C0.0652981132,24.292483 0.0714,24.3825849 0.0770264151,24.4732415 L0.104049057,25.1068075 L20.8811321,25.1068075 L20.9091057,24.4803736 C20.9152075,24.3876566 20.920834,24.2954943 20.920834,24.2007962 C20.920834,20.1432 18.5368189,16.4299245 14.843434,14.7298755 Z M1.08423396,24.0881887 C1.1280566,20.5022604 3.24826415,17.2127094 6.4797283,15.6975396 L6.58361887,15.6568075 L6.59582264,15.6450792 C6.84893208,15.5294604 7.11020377,15.4240642 7.37504151,15.3308717 L7.45904151,15.3008377 C7.60318868,15.2509132 7.74678113,15.2051094 7.896,15.1627925 C8.08190943,15.1082717 8.27138491,15.0593774 8.46133585,15.0166642 C8.5596,14.9958226 8.6579434,14.9759321 8.75929811,14.9570717 C8.83973208,14.9423321 8.91969057,14.9270377 9.00067925,14.9142792 L9.04038113,14.9071472 C9.18603396,14.8842453 9.33224151,14.8633245 9.47789434,14.8475547 L9.81096226,14.8185509 C10.2468906,14.7864566 10.6640377,14.7818604 11.1692264,14.8185509 L11.4931019,14.8455736 C11.5730604,14.854766 11.6530189,14.8654642 11.7503321,14.8791736 L11.8669811,14.8959736 C11.9887019,14.9138038 12.1104226,14.9346453 12.2326189,14.9576264 L12.2896755,14.9683245 C12.3584604,14.981083 12.4266906,14.994317 12.4913547,15.0080264 C12.6920038,15.0518491 12.8890868,15.1037547 13.0846642,15.1603358 C13.2139925,15.1980566 13.3423698,15.2367283 13.4676566,15.2784906 C13.6265434,15.3314264 13.7834491,15.3890377 13.9387698,15.4506113 C14.0879887,15.5091736 14.2351472,15.5718566 14.3808,15.6385811 L14.4062377,15.6503094 C17.711083,17.1665094 19.8572038,20.4667585 19.9010264,24.087317 L1.08423396,24.087317 L1.08423396,24.0881887 Z M7.97556226,12.4889774 C8.05195472,12.5210717 8.13088302,12.5490453 8.20981132,12.5770981 L8.37535472,12.637166 C8.43898868,12.6615736 8.50317736,12.6855849 8.56839623,12.7059509 C9.17549434,12.8969321 9.81056604,12.9951962 10.4563358,13.0003472 L10.507766,13.0013774 C10.7293358,13.0013774 10.9513811,12.9896491 11.164234,12.9677774 C11.2375358,12.9606453 11.3088566,12.948917 11.3806528,12.9367132 L11.5400943,12.9127811 C11.6297208,12.9010528 11.7193472,12.8878189 11.8130943,12.8695132 C11.877283,12.8562792 11.9394113,12.8394792 12.0015396,12.8226792 L12.1757208,12.7783811 C12.2617811,12.7575396 12.3478415,12.7366189 12.4329509,12.7101509 C12.4858868,12.6933509 12.5378717,12.6740151 12.5893019,12.6546 L12.7293283,12.6042 C12.8291774,12.5695698 12.9299774,12.5339094 13.0308566,12.4916717 C13.070083,12.4748717 13.1082792,12.456566 13.1459208,12.4381811 L13.1912491,12.4157547 C13.3292943,12.3541019 13.4667849,12.2909434 13.6032453,12.2176415 L13.6918415,12.1647057 C13.8446264,12.0780906 13.9969358,11.9884642 14.1512264,11.8830679 C14.2311849,11.8291019 14.3075774,11.7684792 14.3829396,11.7084113 L14.6437358,11.5057019 C16.1431358,10.2645623 17.0048491,8.44326792 17.0048491,6.55429811 L17.0079396,6.50033208 C17.0079396,2.91590943 14.0917132,0.000158490566 10.5072906,0.000158490566 C7.08587547,0.000158490566 4.23938491,2.67547925 4.02700755,6.0908717 L4.02138113,6.17542642 C4.01321887,6.28288302 4.00664151,6.39033962 4.00664151,6.50033208 C4.00561132,9.11843774 5.56357358,11.4688528 7.97556226,12.4889774 Z M5.03690943,6.24603396 L5.04301132,6.15434717 C5.22226415,3.2742566 7.62204906,1.01861887 10.5067358,1.01861887 C13.5299434,1.01861887 15.988766,3.47752075 15.9913811,6.45381509 L15.9882906,6.50730566 C15.9862302,8.13809434 15.2589962,9.67363019 13.9882981,10.7283849 L13.7463623,10.9127887 C13.6923962,10.9566113 13.6378755,11.0003547 13.5701208,11.0472679 C13.4479245,11.130317 13.318517,11.2051245 13.1871283,11.2795358 L13.1143019,11.323834 C13.0043094,11.3829509 12.8886906,11.4353321 12.7684755,11.4888226 L12.6335208,11.5540415 C12.5560981,11.5861358 12.474634,11.6141094 12.3941208,11.6421623 L12.2260415,11.7027849 C12.1934717,11.7149887 12.1603472,11.7282226 12.1282528,11.7378906 C12.0656491,11.7572264 12.0014604,11.7720453 11.9377472,11.7878151 L11.7345623,11.8398 C11.6907396,11.8515283 11.6474717,11.8637321 11.6088,11.8718943 C11.5410453,11.8851283 11.4717849,11.8943208 11.4030792,11.9039887 L11.2095623,11.9329925 C11.1627283,11.9411547 11.1158151,11.949317 11.0633547,11.9543887 C10.8937698,11.9722189 10.7231547,11.9818868 10.5500038,11.9833925 L10.5021396,11.982917 L10.5011094,11.982917 C9.94346038,11.9824415 9.39595472,11.8993925 8.87238113,11.735434 C8.82705283,11.7211698 8.78275472,11.7033396 8.7384566,11.6865396 L8.547,11.6168038 C8.48740755,11.595883 8.42836981,11.575517 8.37131321,11.5515849 C6.33819623,10.6916943 5.02415094,8.70842264 5.02415094,6.50064906 C5.02415094,6.41458868 5.03080755,6.33003396 5.03690943,6.24603396 Z" id="Shape"></path>
                        </g>
                    </g>
                </g>
            </g>
        </g>
    </g>
</svg>